<svg xmlns="http://www.w3.org/2000/svg" viewBox="0 0 676.87 506.36"><defs><style>.cls-1{fill:#97221f;}.cls-2{fill:#1484b1;}.cls-3{fill:#1286b5;}.cls-4{fill:#1d81ae;}.cls-5{fill:#2080b9;}.cls-6{fill:#2f88af;}.cls-7{fill:#3482b5;}.cls-8{fill:#248699;}</style></defs><g id="Layer_2" data-name="Layer 2"><g id="Layer_1-2" data-name="Layer 1"><g id="_7AhTB3" data-name="7AhTB3"><path class="cls-1" d="M171.3,11.48C218.67-11,287.68.25,323.53,38.49c11.66,12.45,16,11.17,26.72-.59,47-51.5,172.29-55.41,201.32,21.09.44,13.09-9.81,9.38-16.45,9.71-8.93.44-17.24-2.8-24.65-8-42.21-39.28-97.57-36.4-145,7.66-9.9,9.21-19.6,26.32-29.11,26.12-9.77-.21-18.87-17.49-28.84-26.68-31.71-29.25-68.43-41.41-111.32-31.37C185.42,30.63,168.44,30.94,171.3,11.48Z"/><path class="cls-2" d="M415.74,285.4c-5.64,7.77-24.95,7.82-18.59,20.06,5,9.65,19.24,1.25,28.54-2.66,36-15.1,61.65-40.68,76.32-77.06,5.44-13.5,12.8-32.89,28.38-25.76,14.42,6.59-.11,23-5,33.5C494.81,299.39,450.76,353.7,388,392.25c-16.13,9.91-23.92,4.89-32.16-8.6-21.64-35.38-15.3-71.93,18.92-101.37,9.11-7.84,19.93-13.69,30-20.45C406.9,270.38,418.49,274.53,415.74,285.4Z"/><path class="cls-3" d="M249,282.34c-4.3-3.56-9.64-6.42-12.65-10.85-4.35-6.39-3.59-14.84.18-20.7,5.31-8.26,11.34-.48,16.44,2.12,34.15,17.36,67.27,35.82,76.2,77.89,5.13,24.16-4.39,43.64-18.22,62.51-6.4,8.74-12,5.49-18.27,2-37-20.58-69.69-46.12-93.66-81.64,19.26-21.18,27.77-22,61.26.54,9.74,6.55,11.26,4.07,13.86-4.18l7.36-2.6C281.93,290.18,270,281,249,282.34Z"/><path class="cls-1" d="M171.3,11.48c2.56,14.05,22,11.25,24.93,25-62.71,33.05-51.27,87.72-41.58,142-26.91,6-27.14,6.07-33.5-18.74-9.78-38.1-16.17-76.07,6.58-112.35C138.28,30.51,151.55,17.09,171.3,11.48Z"/><path class="cls-4" d="M306.85,237.55c1.23-19.18,12-30.08,30.6-30,19,.09,29.26,11.61,29.35,30.83.08,16.76-16.32,32.73-33,30.61C316.35,266.8,307.71,255.05,306.85,237.55Z"/><path class="cls-5" d="M274.1,310c3.59,7.16,9,15.94-.5,20.85-8.21,4.23-11.05-4.61-15.13-10.88-11.45-17.56-33.35-19.4-59.48-6.33-16.21-17.06-29.63-36-38.28-58,2.14-8.57,3.61-17.83,16.15-15.78C200,276.05,229.67,303.28,274.1,310Z"/><path class="cls-1" d="M560.22,109.16c2.74,17.26-4.85,33-7.11,49.54-3,21.61-13,30.18-35.17,20.53,2.85-10.46,5.75-21.12,8.65-31.79,5.5-11.44,1.57-23.56,2.51-35.34.69-8.62-1.48-17.84,6.38-24.58C558.67,77.67,557.24,95.93,560.22,109.16Z"/><path class="cls-6" d="M176.86,239.88q-8.09,7.89-16.15,15.78c-11.3-11.27-14-26.91-20.45-40.62-2.41-5.13-4.34-11.39,1.21-15.55,6.84-5.12,12.25.64,17,4.47C169.84,213.1,173,226.73,176.86,239.88Z"/><path class="cls-1" d="M560.22,109.16c-4.78-10.28-6.69-24-23.67-19.58-3.69.4-7.09,3.44-11.07,1.27q-7.51-15-15-30.11c13.56-3.87,27.86,9.69,41.1-1.75C560.27,74.71,562.81,91.49,560.22,109.16Z"/><path class="cls-7" d="M415.74,285.4c-2.31-8.5-17.31-11-11.06-23.56,4.74-2.87,9.16-6.66,14.28-8.36,7.34-2.44,15.36-14.84,22.31-4,6.12,9.51-.75,19.95-8.74,27.42C427.87,281.22,422.51,284.87,415.74,285.4Z"/><path class="cls-8" d="M249,282.34c22.32-23.79,25.27,12.31,40.32,14.06,5.6.65-1.3,9.41-7.82,11C278.2,289.26,260.18,290.2,249,282.34Z"/><path class="cls-1" d="M525.48,90.85c3.6-1.13,6.74-6.35,11.07-1.27-12.23,17.76,2.54,40.16-10,57.87Z"/></g><path class="cls-2" d="M58.05,498.61q-8.91,7.74-24.63,7.75-15.93,0-24.68-7.7T0,474.91V426.1H17.26v48.81a35.23,35.23,0,0,0,.55,6.27,12.82,12.82,0,0,0,2.31,5.44A12.67,12.67,0,0,0,25,490.47,19.91,19.91,0,0,0,33.42,492q9.24,0,12.76-4.12t3.52-12.92V426.1H67v48.81Q67,490.86,58.05,498.61Z"/><path class="cls-2" d="M99,426.1l32.77,52.66h.22V426.1H148.1v78.5H130.84L98.18,452H98V504.6H81.8V426.1Z"/><path class="cls-2" d="M213.63,447a17.29,17.29,0,0,0-3.85-4.34,17.78,17.78,0,0,0-5.22-2.92,18.16,18.16,0,0,0-6.11-1,20.17,20.17,0,0,0-9.89,2.25A18.81,18.81,0,0,0,182,447a26.47,26.47,0,0,0-3.68,8.63,43,43,0,0,0-1.16,10,40,40,0,0,0,1.16,9.62,25.94,25.94,0,0,0,3.68,8.41,18.93,18.93,0,0,0,6.6,6,20.17,20.17,0,0,0,9.89,2.25q7.92,0,12.37-4.83t5.44-12.76H233a40,40,0,0,1-3.41,13.31,31.77,31.77,0,0,1-7.26,10.11,30.78,30.78,0,0,1-10.55,6.38,38.84,38.84,0,0,1-13.31,2.2,40.2,40.2,0,0,1-16.21-3.14,34.63,34.63,0,0,1-12.15-8.63,38.14,38.14,0,0,1-7.59-12.92,47.35,47.35,0,0,1-2.64-16,49,49,0,0,1,2.64-16.33,39.25,39.25,0,0,1,7.59-13.14,34.67,34.67,0,0,1,12.15-8.8,42.13,42.13,0,0,1,28.47-1.31,33.2,33.2,0,0,1,10.34,5.44,29.4,29.4,0,0,1,7.53,8.85,31.76,31.76,0,0,1,3.74,12.09H215.6A14.12,14.12,0,0,0,213.63,447Z"/><path class="cls-2" d="M257.93,485.25a12.58,12.58,0,0,0,3.8,4.45,16.25,16.25,0,0,0,5.55,2.53,26.17,26.17,0,0,0,6.6.82,33.76,33.76,0,0,0,4.94-.38,17.13,17.13,0,0,0,4.95-1.49,10.82,10.82,0,0,0,3.85-3,7.55,7.55,0,0,0,1.54-4.89,6.88,6.88,0,0,0-2-5.17,16,16,0,0,0-5.33-3.3,53.37,53.37,0,0,0-7.47-2.31q-4.19-1-8.47-2.2a75.61,75.61,0,0,1-8.58-2.69,29.62,29.62,0,0,1-7.47-4.12,19.45,19.45,0,0,1-5.33-6.32,19.17,19.17,0,0,1-2-9.19,20.49,20.49,0,0,1,2.59-10.5,23.42,23.42,0,0,1,6.76-7.42,29.27,29.27,0,0,1,9.45-4.39,40,40,0,0,1,10.56-1.43,49.81,49.81,0,0,1,11.82,1.37,29.7,29.7,0,0,1,10.06,4.45,22.65,22.65,0,0,1,7,7.86,24.16,24.16,0,0,1,2.58,11.6H286.52a14,14,0,0,0-1.48-5.82,9.81,9.81,0,0,0-3.36-3.63,14.17,14.17,0,0,0-4.78-1.87,29.23,29.23,0,0,0-5.88-.55,20.4,20.4,0,0,0-4.18.44,11.13,11.13,0,0,0-3.79,1.54,9.57,9.57,0,0,0-2.81,2.75,7.39,7.39,0,0,0-1.1,4.17,7.11,7.11,0,0,0,.88,3.74,7.76,7.76,0,0,0,3.47,2.64,44.1,44.1,0,0,0,7.14,2.42q4.56,1.21,11.93,3.08,2.2.43,6.1,1.59a29.15,29.15,0,0,1,7.76,3.69,23.44,23.44,0,0,1,6.65,6.76q2.81,4.23,2.8,10.83a24,24,0,0,1-2.09,10,21.63,21.63,0,0,1-6.21,8,29.94,29.94,0,0,1-10.22,5.23,48.57,48.57,0,0,1-14.13,1.87,49.71,49.71,0,0,1-12.59-1.6,31.7,31.7,0,0,1-10.78-5,24.71,24.71,0,0,1-7.42-8.69,26,26,0,0,1-2.64-12.53H256.5A14.47,14.47,0,0,0,257.93,485.25Z"/><path class="cls-2" d="M398.89,444a21.39,21.39,0,0,0-5.3-5.77,23.35,23.35,0,0,0-6.89-3.55,25.53,25.53,0,0,0-7.89-1.22,27.25,27.25,0,0,0-12.93,2.86,25.65,25.65,0,0,0-8.85,7.58A32.62,32.62,0,0,0,352,454.58a45.9,45.9,0,0,0,0,24.32A32.55,32.55,0,0,0,357,489.6a25.65,25.65,0,0,0,8.85,7.58A27.25,27.25,0,0,0,378.81,500a22.9,22.9,0,0,0,9.54-1.91,22.62,22.62,0,0,0,7.31-5.19,27,27,0,0,0,5-7.68,31.93,31.93,0,0,0,2.43-9.48h7.21a40.78,40.78,0,0,1-3.29,12.6,30.68,30.68,0,0,1-6.57,9.54,27.7,27.7,0,0,1-9.48,6,33.32,33.32,0,0,1-12.13,2.12,35.77,35.77,0,0,1-15.63-3.23A32.3,32.3,0,0,1,352,494.21a36.57,36.57,0,0,1-6.67-12.5,51.16,51.16,0,0,1,0-29.88A37.23,37.23,0,0,1,352,439.27a32.19,32.19,0,0,1,11.18-8.69,37.87,37.87,0,0,1,26.17-1.64,30.51,30.51,0,0,1,9.33,4.72,27.35,27.35,0,0,1,7,7.68,26,26,0,0,1,3.55,10.49H402A24.24,24.24,0,0,0,398.89,444Z"/><path class="cls-2" d="M451.5,428.94l29.67,75.66h-7.74l-9.22-23.53H429.77l-9.11,23.53H413l30.41-75.66Zm10.27,46-14.62-38.78L432,474.93Z"/><path class="cls-2" d="M522.7,428.94a32.73,32.73,0,0,1,8.85,1.17,21.19,21.19,0,0,1,7.31,3.55,17.22,17.22,0,0,1,5,6.14,19.76,19.76,0,0,1,1.85,8.85,21.25,21.25,0,0,1-3.7,12.5q-3.72,5.31-11,6.79v.21a16.56,16.56,0,0,1,6.14,2,12.22,12.22,0,0,1,4,3.65,15,15,0,0,1,2.23,5.14,37.59,37.59,0,0,1,.9,6.31c.07,1.27.14,2.82.21,4.66s.21,3.69.43,5.56a34.11,34.11,0,0,0,1,5.3,10.12,10.12,0,0,0,1.86,3.87h-8a9.47,9.47,0,0,1-1-2.6,24.53,24.53,0,0,1-.53-3.18c-.1-1.09-.19-2.17-.26-3.23s-.14-2-.21-2.75c-.15-2.69-.37-5.36-.69-8a22,22,0,0,0-2-7.1,12.48,12.48,0,0,0-4.46-5c-1.94-1.27-4.6-1.83-8-1.69H495.26V504.6h-7.21V428.94Zm-.53,35.92a19.35,19.35,0,0,0,6.25-1,15.53,15.53,0,0,0,5.19-2.92,14.14,14.14,0,0,0,3.55-4.61,13.82,13.82,0,0,0,1.33-6.2q0-7-4-11t-12.29-4H495.26v29.77Z"/><path class="cls-2" d="M611,428.94v6.15h-45v27.34H608.1v6.14H565.93v29.88h45.56v6.15H558.73V428.94Z"/><path class="cls-2" d="M626.75,489.45A16,16,0,0,0,632,495.7a21.83,21.83,0,0,0,7.89,3.33,44.61,44.61,0,0,0,9.75,1,27.28,27.28,0,0,0,6.46-.85,22.25,22.25,0,0,0,6.52-2.7,16.47,16.47,0,0,0,5-4.77,12.09,12.09,0,0,0,2-7,10.26,10.26,0,0,0-1.44-5.51,13,13,0,0,0-3.7-3.92,21.82,21.82,0,0,0-5-2.6,48.53,48.53,0,0,0-5.4-1.64l-16.85-4.14a50.6,50.6,0,0,1-6.41-2.11,18.49,18.49,0,0,1-5.46-3.39,16.35,16.35,0,0,1-3.76-5.2,17.79,17.79,0,0,1-1.43-7.52,23.81,23.81,0,0,1,1.06-6.46,18,18,0,0,1,4-7,23.23,23.23,0,0,1,8-5.56q5.1-2.28,13-2.28a38,38,0,0,1,10.7,1.49,26.3,26.3,0,0,1,8.9,4.45,21.42,21.42,0,0,1,8.37,17.58H667a17.71,17.71,0,0,0-2-7.57,17,17,0,0,0-4.56-5.4,19.91,19.91,0,0,0-6.46-3.29,26.34,26.34,0,0,0-7.69-1.11,31.72,31.72,0,0,0-7.15.79,17.88,17.88,0,0,0-6,2.55,13.09,13.09,0,0,0-4.18,4.61,14.41,14.41,0,0,0-1.59,7.09,10.93,10.93,0,0,0,.9,4.61,9.72,9.72,0,0,0,2.49,3.34,13.33,13.33,0,0,0,3.65,2.23,28.24,28.24,0,0,0,4.4,1.37l18.44,4.56a52.58,52.58,0,0,1,7.57,2.6,25,25,0,0,1,6.26,3.81,16.13,16.13,0,0,1,4.23,5.56,18.57,18.57,0,0,1,1.54,7.95,30,30,0,0,1-.26,3.39,17.32,17.32,0,0,1-1.28,4.5,22.39,22.39,0,0,1-2.86,4.83,17.92,17.92,0,0,1-5.08,4.39,29.39,29.39,0,0,1-8,3.18,52.33,52.33,0,0,1-23.84-.32,26.54,26.54,0,0,1-9.75-4.71,20.75,20.75,0,0,1-6.2-8.16,26.73,26.73,0,0,1-1.86-12H625A21.36,21.36,0,0,0,626.75,489.45Z"/></g></g></svg>